<svg width="324" height="161" viewBox="0 0 324 161" fill="none" xmlns="http://www.w3.org/2000/svg">
<g clip-path="url(#clip0_24_4527)">
<path d="M287.51 49.638C287.104 50.0494 284.234 50.2526 283.62 50.3567C280.443 50.9713 277.266 51.3828 274.193 51.7942C268.042 52.6119 261.583 52.5078 255.536 53.5338C255.641 50.3567 250.313 45.2317 247.953 49.1276C247.24 50.2526 247.031 51.7942 246.625 53.0234C246.214 54.3515 246.214 54.1484 245.089 54.4557C244.266 54.763 243.036 54.763 242.219 54.763C240.781 54.9713 239.448 54.9713 238.016 55.0703C236.172 55.1744 234.12 55.0703 233.401 57.1223C231.661 62.5546 240.063 62.7578 243.24 62.5546C242.729 63.9869 242.318 65.4244 241.703 66.9609C241.604 67.3671 240.37 71.0598 240.578 71.0598L241.193 70.2369C239.755 74.1328 237.297 78.3359 235.557 82.4348C234.531 84.8932 233.708 87.2526 232.891 89.7109C232.276 91.6588 232.276 91.8619 230.224 92.3724L227.151 92.888C226.432 92.9869 225.51 93.0911 224.896 93.7057C222.234 96.5755 227.359 98.8307 229.714 98.7265C229.099 100.367 222.13 118.404 222.026 118.404C222.026 118.508 222.745 117.07 223.568 115.023L220.286 123.325C220.286 123.117 220.391 122.914 220.391 122.81C219.979 122.81 218.443 127.117 218.75 127.117L219.156 126.706C218.646 127.935 217.828 128.346 218.031 130.086C218.339 131.93 219.568 133.466 221.104 134.492C222.437 135.414 225.307 137.055 226.948 136.544C228.484 136.029 227.359 136.133 227.974 135.414C230.432 132.648 230.943 128.138 232.172 124.45C232.479 123.424 236.375 111.331 236.271 111.232L235.865 111.638C236.172 110.82 236.479 109.794 236.885 108.872C236.99 108.977 236.578 109.695 236.786 109.695C237.401 109.794 239.755 102.727 239.964 102.211C240.474 100.674 240.37 98.5234 241.089 97.0859C241.807 95.7578 242.833 95.8567 244.266 95.7578C245.599 95.6536 246.521 95.1432 247.339 94.7317C248.568 94.2213 250.109 94.4244 251.339 94.1171C252.979 93.7057 254.516 93.5026 256.156 93.0911C257.896 92.7838 258.51 92.0651 259.74 91.7578C261.073 91.4505 264.76 91.6588 265.172 89.8098C265.583 87.8671 264.047 89.0963 263.839 89.0963C260.562 89.2994 257.281 88.789 254 89.0963C250.516 89.2994 247.135 89.6067 243.651 89.914C243.651 89.8098 244.063 87.6588 243.547 88.5807L243.854 87.763V88.0703C244.062 88.0703 245.292 84.0755 245.703 83.4609C247.135 80.7942 248.161 77.6171 249.083 74.6432C250.005 71.5703 250.823 68.4973 251.745 65.5234L252.568 63.2682C253.078 61.7317 252.771 61.9401 254.104 61.5286C255.333 61.2213 257.078 61.1171 258.307 61.013C263.74 60.6067 268.76 59.1692 274.193 57.7369C275.521 57.4296 277.88 56.914 279.005 55.9921C280.031 55.1744 279.828 54.9713 281.161 54.5598C281.875 54.3515 289.255 50.664 287.51 49.638ZM238.833 97.8046C237.5 102.008 236.068 106.31 234.531 110.513C233.198 113.893 231.354 117.174 230.125 120.555C232.687 112.872 235.964 105.289 238.833 97.6015V97.7005C238.734 98.1119 238.734 98.013 238.833 97.8046ZM230.125 98.6276L228.792 101.805C229.203 100.57 229.818 98.7265 230.125 98.6276ZM238.938 97.2942V97.3932C238.833 97.4974 238.833 97.4974 238.833 97.6015C238.833 97.4974 238.833 97.3932 238.938 97.2942ZM238.938 97.2942C238.938 97.1901 238.938 97.0859 239.042 96.9869V97.0859C239.042 97.0859 238.938 97.1901 238.938 97.2942Z" fill="white"/>
<path d="M289.557 99.5494C289.353 98.2161 287.916 98.6276 287.202 99.138C286.281 99.7526 281.156 106.518 281.562 107.029C281.869 107.029 282.077 107.029 282.281 106.825C280.848 108.565 278.182 110.513 276.234 112.049C275.109 112.971 272.343 115.534 270.702 114.716C267.218 112.971 274.286 100.674 273.978 100.57C273.671 100.471 271.109 106.211 270.598 107.539C271.827 103.956 273.468 100.367 275.416 97.1901C275.312 97.4974 275.004 98.013 275.208 98.013C275.416 98.1119 276.952 95.9609 276.645 95.7578C276.541 95.7578 276.338 95.7578 276.234 95.8567C276.541 95.5494 277.057 95.4505 277.057 94.8359C277.057 93.8099 274.697 92.7838 273.879 92.4765C271.932 91.6588 269.984 91.4505 268.447 92.4765C266.395 93.7057 265.989 96.164 265.166 98.3203C264.963 98.9349 263.015 106.211 263.426 106.31C263.629 106.211 263.629 106.107 263.734 105.904L263.426 107.747C263.322 107.747 263.525 107.232 263.322 107.232C262.504 107.232 262.708 110.924 262.812 111.435C263.218 113.279 264.656 114.612 265.781 116.148C266.395 117.07 267.01 117.992 267.932 118.607C269.166 119.534 268.343 118.607 269.166 119.018H268.958C268.859 119.633 272.749 120.659 273.572 120.555C277.156 119.737 279.718 115.331 281.77 112.565C283.718 110.102 285.353 107.643 287.098 105.081C288.124 103.747 289.968 101.497 289.557 99.5494ZM271.624 86.6328C271.827 86.9401 271.52 87.3515 272.239 87.763C272.958 88.0703 273.364 87.6588 273.978 87.4557C275.208 86.9401 276.135 85.6119 277.057 84.789C277.364 84.5859 276.749 84.6901 276.749 84.6901C278.077 83.4609 276.952 84.8932 278.182 84.1744C279.411 83.3567 279.619 82.0234 280.64 80.8984C279.411 81.4088 278.489 82.1276 277.671 83.1484C276.645 84.4817 275.926 85.0963 274.801 85.8151C276.031 84.8932 276.645 83.9713 277.671 82.3307C277.978 82.0234 278.286 81.8203 278.692 81.6119C278.385 81.3046 278.385 80.9974 278.796 80.6901C279.103 80.1796 279.718 79.9765 280.025 79.4609C280.541 78.7421 280.437 77.8203 281.051 77.1067C281.562 76.6953 282.281 76.388 282.692 75.9765C283.614 75.1588 284.64 73.6224 284.228 72.289C283.817 71.0598 282.796 69.5234 281.666 68.8046C280.333 68.0859 278.489 67.7786 277.057 68.3932C276.749 68.4974 275.52 68.8046 275.926 69.2161C276.031 69.4192 276.135 69.4192 276.338 69.4192C275.416 70.138 273.879 71.3671 276.031 72.1849C275.827 72.388 276.031 73.3151 276.031 73.414C275.926 74.1328 274.494 77.9244 273.572 79.7682L274.801 77.9244C274.083 79.4609 273.265 80.8984 272.343 82.1276C272.958 80.7942 271.728 82.3307 271.728 82.638C270.598 82.1276 270.906 85.3046 271.01 85.6119C271.01 85.7109 271.624 86.6328 271.624 86.6328ZM269.676 111.023V111.128L269.473 111.742L269.676 110.924C269.781 110.82 269.781 110.82 269.676 111.023ZM273.057 80.5911C273.057 80.5911 273.265 80.3828 273.468 79.9765L273.057 80.5911ZM272.036 82.5338C272.036 82.638 272.036 82.638 271.932 82.7421C271.932 82.7421 271.932 82.638 271.827 82.638C271.932 82.638 271.932 82.638 272.036 82.5338Z" fill="white"/>
<path d="M323.684 71.4661C323.579 70.0338 322.043 71.1588 321.22 71.1588C317.121 71.3671 313.022 71.3671 309.027 71.5702C309.027 71.4661 309.23 71.0598 309.538 70.4452C309.131 71.1588 308.819 71.5702 308.512 71.5702C311.59 65.3202 314.866 59.0702 318.762 53.3307C318.658 53.5338 317.121 56.0963 317.225 56.0963C317.533 56.2005 321.324 50.9713 321.428 50.2525C321.428 49.8463 320.506 50.8671 320.506 50.7682C321.121 50.1536 322.142 49.638 322.449 48.8202C323.168 46.7682 321.017 45.8463 319.48 45.539C316.303 44.9244 312.715 45.3359 310.668 48.0025C308.72 50.3567 307.283 53.1223 306.053 55.8932C305.439 57.1223 304.621 57.4296 303.798 58.5546C302.569 60.2994 301.751 62.3463 300.829 64.2942C300.006 66.039 299.189 67.8827 298.47 69.7265C298.059 70.6484 298.059 71.3671 297.137 71.6744C296.215 72.0807 294.475 71.7734 293.449 71.8775C289.454 72.388 285.559 72.1848 281.564 72.5963C279.512 72.7005 277.465 72.7005 275.517 73.414C275.105 73.5182 272.85 74.0286 272.647 74.3359C272.033 75.4661 274.491 75.565 275.001 75.6692C278.897 76.1848 283.814 76.5911 287.71 75.8723C290.376 75.3619 293.142 75.565 296.012 75.3619C294.574 78.4348 293.449 81.7161 292.324 84.9973L291.095 88.5807C290.684 89.7109 289.35 91.8619 289.35 93.0911C289.35 93.2942 289.658 92.7838 289.861 92.2734C289.35 93.8098 288.736 95.3463 288.324 96.8828C288.324 96.7786 288.631 95.5494 288.533 95.5494C288.017 95.5494 285.97 101.805 285.762 102.315C284.741 105.388 283.611 108.461 283.1 111.742C282.486 115.023 281.663 118.2 280.949 121.378C280.538 123.018 280.126 124.555 279.923 126.19C279.715 127.013 279.512 127.935 279.512 128.753C279.512 128.961 279.512 130.294 279.715 129.883L279.512 131.93V130.393C278.897 131.112 279.512 134.393 279.616 135.008C280.022 137.055 281.048 138.898 282.892 140.128C284.533 141.362 287.095 142.487 289.043 141.565C291.605 140.336 293.756 137.466 295.397 135.414C298.986 131.216 302.262 126.81 305.543 122.398C308.512 118.299 311.59 114.305 314.152 110.003C315.585 107.539 318.35 105.289 319.272 102.518C319.788 101.185 319.48 99.5494 317.84 99.8567C316.506 100.164 314.663 103.747 313.845 104.773C310.152 109.388 306.668 114.102 302.98 118.711L297.038 125.987C296.116 127.013 295.194 128.138 294.168 129.164C293.756 129.674 291.194 131.727 291.298 132.341C291.298 132.544 292.423 131.622 292.835 131.315C292.324 131.93 291.71 132.445 291.194 132.956C291.298 132.852 289.147 134.086 288.84 133.878C286.892 133.06 288.631 127.117 288.939 125.68C290.783 117.378 293.553 108.977 296.319 100.982C297.96 96.5755 299.6 92.3723 301.444 88.0703C302.366 85.9192 303.288 83.664 304.314 81.513L305.746 77.6171L304.621 79.8723C305.335 78.0286 306.361 75.2577 306.975 75.1588L306.668 75.7734C306.876 75.4661 307.079 75.2577 307.283 75.1588C308.413 74.44 311.283 75.1588 312.611 75.1588C313.538 75.1588 314.663 75.2577 315.585 74.9505C316.199 74.7473 315.996 74.44 316.715 74.2369C317.944 74.0286 319.48 74.8515 320.814 74.44C322.043 74.1327 323.783 73.0077 323.684 71.5702V71.4661ZM304.21 77.414C299.6 87.1484 296.116 97.6015 292.423 107.747C290.684 112.357 289.043 117.174 287.918 121.992L287.402 123.94C288.121 120.247 288.939 116.664 289.965 113.075C292.22 105.185 295.09 97.3932 298.47 89.914C304.21 77.1067 309.335 63.3723 317.533 51.7942C311.996 59.6848 308.309 68.7005 304.21 77.414ZM310.975 67.2682L313.434 62.5546C312.923 62.6536 311.996 64.9088 310.975 67.2682ZM300.418 89.6067C299.699 91.5546 298.881 93.3984 298.059 95.2421C298.881 93.2942 299.6 91.2473 300.522 89.1953C300.418 89.4036 300.418 89.5025 300.418 89.6067ZM309.642 70.2369L310.668 67.9817C310.361 68.8046 309.949 69.6223 309.642 70.2369ZM287.298 134.799C287.199 134.799 287.095 134.7 286.991 134.596L287.298 134.799Z" fill="white"/>
<path d="M112.262 12.2512C110.345 17.3658 108.293 22.4075 106.116 27.3762C83.3344 78.9491 63.7928 123.189 47.4907 160.105C43.6834 160.798 42.9126 158.553 45.1782 153.376C49.4126 142.111 56.8344 124.204 67.449 99.647C78.0584 75.095 88.8709 50.621 99.8865 26.2304C102.121 21.2616 104.168 16.2304 106.032 11.147C106.084 10.9127 106.183 10.6679 106.324 10.4179C106.709 9.49079 107.038 8.48038 107.303 7.39704C107.579 6.30329 107.621 5.11579 107.428 3.83454C105.73 4.12621 104.189 4.621 102.803 5.31371C102.428 5.45434 102.095 5.57413 101.803 5.66788C88.8136 11.0741 75.2511 18.1054 61.1157 26.772C46.9751 35.4283 34.6782 44.4595 24.2199 53.8762C21.9803 55.9335 19.8136 58.0741 17.7199 60.2929C15.6209 62.5168 13.6574 64.8918 11.824 67.4179C9.76673 70.1002 8.2459 73.0793 7.26152 76.3554C5.45423 82.4387 7.26673 87.0637 12.699 90.2304C16.5011 92.3866 20.2928 93.8293 24.074 94.5637C27.8501 95.3033 31.4074 95.6418 34.7407 95.5845C38.0844 95.5325 40.9803 95.3554 43.4282 95.0637C44.4386 95.0116 45.3136 94.9491 46.0532 94.8762C46.5376 94.8241 47.0219 94.845 47.5115 94.9387C48.0115 95.022 48.4386 95.2929 48.8032 95.7512C49.3969 96.5741 48.6365 97.2043 46.5115 97.647C44.3969 98.0793 41.5115 98.2929 37.8449 98.2929C34.1886 98.2929 30.3136 98.0741 26.2199 97.6262C18.9542 96.6158 13.3136 95.0585 9.30319 92.9595C6.82923 91.7252 4.78236 90.0168 3.15736 87.8345C1.26673 85.2095 0.537564 82.3293 0.969856 79.1887C1.35527 75.8866 2.37611 72.8345 4.03236 70.0429C6.76673 65.4752 10.0167 61.3502 13.7824 57.6679C20.324 50.9491 27.9178 44.4387 36.574 38.147C45.2407 31.8554 54.2094 26.0325 63.4907 20.6679C72.7824 15.3085 81.6417 10.6262 90.074 6.62621C93.9334 4.87621 97.8449 3.246 101.803 1.73038C103.689 0.980377 105.663 0.459544 107.72 0.167877C108.303 0.0845439 108.814 0.0845439 109.262 0.167877C113.064 -0.00920682 114.647 1.91788 114.012 5.95954C113.621 8.11579 113.038 10.2095 112.262 12.2512Z" fill="white"/>
<path d="M118.358 110.022C118.91 110.163 119.202 110.366 119.233 110.626C119.259 110.892 119.275 111.022 119.275 111.022C118.634 112.147 117.905 113.178 117.087 114.105C115.197 116.204 113.004 117.876 110.504 119.126C109.28 119.824 107.889 120.199 106.337 120.251C102.78 120.309 101.15 118.579 101.441 115.064C101.566 114.314 101.738 113.579 101.962 112.855C102.087 112.522 102.176 112.184 102.233 111.835C102.577 110.559 102.676 109.85 102.525 109.71C102.384 109.559 101.967 109.918 101.275 110.793C101.092 110.949 100.921 111.121 100.754 111.314C99.6966 112.595 98.6081 113.845 97.4831 115.064C95.4414 117.397 93.0977 119.366 90.4623 120.96C88.8893 121.892 87.2331 122.387 85.4831 122.439C82.6081 122.579 80.9987 121.267 80.6498 118.501C80.5143 117.376 80.5612 116.272 80.7956 115.189C81.9779 110.663 84.3164 107.22 87.8164 104.855C91.3269 102.48 95.3477 101.642 99.8789 102.335C101.155 102.71 102.087 102.366 102.671 101.293C102.905 100.892 103.15 100.48 103.4 100.064C104.619 97.9543 105.816 95.8502 106.983 93.7512C109.191 89.7096 111.41 85.6418 113.65 81.5429C115.452 78.3241 117.259 75.0741 119.066 71.7929C119.608 70.7929 120.197 69.8293 120.837 68.8971C121.129 68.4387 121.488 68.1679 121.921 68.0846C122.363 67.9908 122.827 67.9387 123.316 67.9387C123.41 67.9387 123.53 67.9387 123.671 67.9387C124.197 67.9387 124.619 68.0741 124.941 68.3346C125.259 68.6002 125.327 68.9543 125.15 69.3971C124.801 70.5221 124.384 71.595 123.9 72.6054C121.452 77.496 119.15 82.4491 116.983 87.4596C114.816 92.4752 112.676 97.5221 110.566 102.605C109.884 104.371 109.181 106.126 108.462 107.876C107.587 109.918 106.858 112.022 106.275 114.189C106.108 114.663 106.025 115.137 106.025 115.605C106.025 116.064 106.254 116.47 106.712 116.814C107.004 116.996 107.306 117.032 107.629 116.918C107.947 116.793 108.296 116.657 108.671 116.501C108.712 116.418 108.785 116.35 108.9 116.293C111.426 114.835 113.738 113.079 115.837 111.022C116.181 110.678 116.551 110.387 116.941 110.147C117.327 109.913 117.801 109.871 118.358 110.022ZM98.6498 107.439C98.9414 106.954 99.0248 106.496 98.8998 106.064C98.7852 105.621 98.4883 105.293 98.0039 105.085C97.0143 104.559 95.9675 104.491 94.8581 104.876C92.1081 105.71 89.806 107.288 87.9623 109.605C86.1133 111.913 85.1133 114.46 84.9623 117.251C85.0143 117.392 85.0456 117.491 85.0456 117.543C85.0456 117.782 85.0456 118.017 85.0456 118.251C85.28 119.532 86.0664 119.782 87.3998 119.001C88.7435 118.21 90.2539 116.939 91.9206 115.189C93.5873 113.428 95.0716 111.751 96.3789 110.168C97.6966 108.585 98.4519 107.678 98.6498 107.439Z" fill="white"/>
<path d="M139.028 115.71C137.487 117.225 135.685 118.522 133.633 119.605C131.591 120.678 129.872 121.376 128.487 121.71C127.112 122.043 125.685 122.23 124.216 122.272C121.883 122.387 119.726 122.074 117.758 121.335C114.539 120.032 113.419 117.538 114.403 113.855C115.336 110.689 117.221 108.22 120.07 106.439C122.914 104.663 125.851 103.803 128.883 103.855C128.883 103.855 128.909 103.855 128.966 103.855C129.742 103.803 130.471 103.85 131.153 104.001C132.331 104.433 133.081 105.126 133.403 106.085C133.721 107.043 133.508 108.105 132.758 109.272C131.06 111.855 128.747 113.293 125.82 113.585C123.872 113.767 121.997 113.678 120.195 113.314C119.846 113.262 119.539 113.35 119.278 113.585C119.013 113.824 118.851 114.116 118.799 114.46C118.258 116.751 118.956 118.22 120.903 118.855C123.304 119.678 125.789 119.678 128.362 118.855C131.346 117.928 134.179 116.168 136.862 113.585C139.554 111.001 141.101 109.803 141.508 109.98C141.924 110.147 142.054 110.642 141.903 111.46C141.528 112.767 140.57 114.183 139.028 115.71ZM122.028 109.272C121.862 109.454 121.742 109.663 121.674 109.897C121.617 110.121 121.706 110.324 121.945 110.501C122.872 111.043 123.883 111.246 124.966 111.105C126.06 110.954 126.987 110.538 127.737 109.855C128.497 109.178 128.831 108.345 128.737 107.355C128.653 107.012 128.466 106.793 128.174 106.71C127.883 106.616 127.591 106.595 127.299 106.647C125.325 106.996 123.57 107.871 122.028 109.272Z" fill="white"/>
<path d="M168.46 110.689C169.085 111.053 169.126 111.928 168.585 113.314C167.819 114.314 166.991 115.262 166.105 116.147C165.23 117.022 164.277 117.809 163.251 118.501C163.168 118.501 163.126 118.522 163.126 118.564C162.428 119.053 161.699 119.47 160.939 119.814C154.574 122.095 151.324 120.746 151.189 115.772C148.605 118.012 146.876 119.387 146.001 119.897C143.902 121.147 141.631 121.704 139.189 121.564C137.371 121.454 136.142 120.907 135.501 119.918C134.85 118.918 134.907 117.564 135.668 115.855C136.835 113.178 138.501 110.782 140.668 108.668C143.194 106.335 146.001 104.46 149.085 103.043C150.72 102.225 152.449 101.907 154.272 102.085C156.074 102.199 157.168 103.225 157.543 105.168C157.694 105.751 157.548 106.267 157.105 106.71C156.522 107.251 155.84 107.376 155.064 107.085C155.006 107.085 154.928 107.074 154.835 107.043C154.751 107.017 154.678 106.975 154.626 106.918C153.845 105.85 153.064 105.407 152.272 105.585C151.491 105.751 150.668 106.105 149.793 106.647C145.694 109.038 142.652 112.371 140.668 116.647C140.553 116.845 140.486 117.053 140.46 117.272C140.428 117.496 140.501 117.678 140.668 117.814C141.137 117.97 141.668 117.934 142.251 117.71C142.835 117.491 143.418 117.163 144.001 116.73C144.595 116.288 145.09 115.918 145.48 115.626C145.532 115.543 145.564 115.501 145.564 115.501C147.506 113.876 149.407 112.21 151.272 110.501C152.09 109.626 153.116 109.142 154.355 109.043C156.105 109.043 156.835 109.829 156.543 111.397C156.376 111.98 156.199 112.564 156.022 113.147C155.324 115.678 155.298 117.163 155.939 117.605C156.574 118.038 157.553 118.038 158.876 117.605C160.194 117.163 161.506 116.324 162.814 115.085C164.131 113.85 165.241 112.72 166.147 111.689C167.064 110.663 167.835 110.329 168.46 110.689Z" fill="white"/>
<mask id="mask0_24_4527" style="mask-type:luminance" maskUnits="userSpaceOnUse" x="141" y="57" width="43" height="54">
<path d="M141.708 57.4583H184V110.458H141.708V57.4583Z" fill="white"/>
</mask>
<g mask="url(#mask0_24_4527)">
<path d="M179.547 91.8854L173.802 86.375C173.802 86.375 177.807 76.2604 179.547 73.0938C180.292 71.7448 181.182 69.9584 181.698 67.9844C181.74 67.9948 181.786 68 181.839 68C182.589 68 183.193 66.8906 183.193 65.5209C183.193 64.4948 182.849 63.6146 182.359 63.2396C182.359 63.2396 181.682 63.75 181.635 64.7448C181.635 64.7448 181.448 63.6615 182.307 62.7292C182.161 61.6354 181.896 60.9948 181.255 60.2031C180.109 58.8021 178.365 58.3334 175.708 58.2084C173.219 58.0938 171.422 57.7917 169.312 57.5625C168.589 57.4792 168.901 58.8959 169.094 59.2396C169.484 59.9271 170.042 60.1563 172.026 60.75C172.026 60.75 170.437 60.75 168.818 59.8229C168.448 60.4948 168.245 61.3802 168.177 62.3906C169.474 63.75 169.198 65.3698 169.198 65.3698C169.13 63.9271 168.146 63.1875 168.146 63.1875C167.62 63.5261 167.24 64.4427 167.24 65.5209C167.24 66.8906 167.849 68 168.599 68C168.672 68 168.74 67.9844 168.807 67.9688C169.396 70.2292 170.318 72.3542 171.339 73.6094C170.797 74.1406 170.281 74.6511 169.797 75.0313C172.844 74.8906 175.219 77.0313 175.219 77.0313C175.219 77.0313 170.995 74.4271 167.729 76.3438C163.203 79 158.292 77.0313 158.292 77.0313C158.292 77.0313 162.729 77.8438 167.427 75.625C167.531 75.5781 167.63 75.5365 167.729 75.4948C165.266 74.5313 162.984 73.0834 157.036 76.0156C157.036 76.0156 155.495 76.6719 154.615 78.0625C154.615 78.0625 154.854 76.7969 156.198 75.6563C155.021 75.2344 152.797 74.7188 150.885 75.9011C150.885 75.9011 149.344 76.5573 148.464 77.9479C148.464 77.9479 149.13 76.2604 151.005 75.0313C151.286 73.3125 152.161 69.4531 154.573 67.0781C154.682 66.9688 154.786 66.8698 154.885 66.7865C154.109 66.9375 153.484 67.2448 153.484 67.2448C154.74 66.0677 155.865 66.5417 156.682 66.4688C157.651 66.3854 158.812 66.8854 159.406 66.7969C160.203 66.6823 161.453 66.5417 161.76 66.3698C162.615 65.8854 162.031 64.8906 161.354 64.8594C160.479 64.8177 162.969 64.8854 162.901 63.8646C162.797 62.2813 162.969 61.7761 162.51 61.1563C162.302 60.875 160.203 58.9375 159.562 58.9427C157.818 58.9427 155.161 60.599 153.734 61.25C152.526 61.8021 151.969 62.9167 151.437 63.8021C150.422 65.4844 141.708 76.5 141.797 79.8386C141.896 83.4636 148.958 87.2031 156.12 84.7813C156.12 84.7813 157.823 83.9792 158.771 83.2604C158.771 83.2604 157.745 84.4688 156.49 85.2604C156.891 85.7813 157.37 86.4584 157.906 87.2448C159.604 89.4115 162.745 92.7969 166.786 94.4792C166.786 94.4792 164.62 94.2031 161.615 92.9844C162.292 94.0625 162.974 95.1563 163.63 96.2136C164.437 97.5052 165.484 98.6354 166.719 99.5209C167.781 100.276 168.937 100.953 170.182 101.474C170.182 101.474 168.625 101.276 166.312 100.469C167.016 101.563 167.604 102.453 168.016 103.005C169.031 104.38 170.698 105.661 170.25 109.698L179.547 91.8854Z" fill="white"/>
</g>
<mask id="mask1_24_4527" style="mask-type:luminance" maskUnits="userSpaceOnUse" x="173" y="58" width="37" height="52">
<path d="M173.333 58.6667H209.708V109.333H173.333V58.6667Z" fill="white"/>
</mask>
<g mask="url(#mask1_24_4527)">
<path d="M199.979 63.8021C199.443 62.9167 198.891 61.8021 197.682 61.25C196.255 60.5989 193.594 58.9427 191.854 58.9427C191.208 58.9375 189.109 60.875 188.901 61.1562C188.443 61.776 188.62 62.2812 188.516 63.8646C188.443 64.8854 190.932 64.8177 190.057 64.8594C189.385 64.8906 188.797 65.8854 189.656 66.3698C189.964 66.5417 191.214 66.6823 192.005 66.7969C192.599 66.8854 193.76 66.3854 194.734 66.4687C195.552 66.5417 196.677 66.0677 197.932 67.2448C197.932 67.2448 197.307 66.9375 196.531 66.7864C196.63 66.8698 196.729 66.9687 196.844 67.0781C199.25 69.4531 200.125 73.3125 200.411 75.0312C202.281 76.2604 202.953 77.9479 202.953 77.9479C202.073 76.5573 200.526 75.901 200.526 75.901C198.615 74.7187 196.396 75.2344 195.214 75.6562C196.562 76.7969 196.802 78.0625 196.802 78.0625C195.922 76.6719 194.375 76.0156 194.375 76.0156C191.719 74.7031 189.797 74.2708 188.26 74.276L187.073 76.4062C190.958 77.625 194.214 77.0312 194.214 77.0312C194.214 77.0312 190.552 78.4948 186.635 77.1875L181.891 85.7239L186.891 90.5885L173.568 105.932C173.568 105.932 183.479 110.448 190.271 106.177C185.708 101.937 185.26 99.8489 185.901 97.5052C186.776 94.3229 192.146 85.9167 192.146 85.9167C199.307 88.3437 209.521 83.4635 209.615 79.8385C209.703 76.5 200.995 65.4844 199.979 63.8021Z" fill="white"/>
</g>
<mask id="mask2_24_4527" style="mask-type:luminance" maskUnits="userSpaceOnUse" x="190" y="88" width="22" height="22">
<path d="M190.245 88.0833H211.245V109.083H190.245V88.0833Z" fill="white"/>
</mask>
<g mask="url(#mask2_24_4527)">
<path d="M204.125 107.953C202.318 107.719 199.708 107.031 197.406 105.073C196.203 104.052 195.214 102.813 194.464 101.391C194.917 101.026 195.401 100.693 195.911 100.401C196.271 100.193 196.641 100.005 197.021 99.8386C198.406 101.964 200.182 103.714 202.307 105.052C203.531 105.823 204.854 106.438 206.245 106.88C205.589 107.318 204.875 107.682 204.125 107.953ZM207.651 91.4115C208.104 93.7969 208.052 96.1667 207.49 98.4479C207.151 99.8125 206.63 101.141 205.943 102.391C205.604 102.234 205.276 102.063 204.948 101.88C204.531 101.641 204.13 101.385 203.745 101.104C204.807 99.1198 205.953 96.0261 205.651 92.224C205.583 91.375 205.448 90.5261 205.245 89.6979C206.13 90.1511 206.943 90.7292 207.651 91.4115ZM206.802 106.49C205.307 106.052 203.891 105.411 202.594 104.599C200.562 103.318 198.865 101.651 197.531 99.6302C198.062 99.4271 198.609 99.2604 199.167 99.1354C199.187 99.1302 199.208 99.125 199.229 99.1198C199.25 99.1198 199.266 99.1146 199.286 99.1094C199.734 99.0156 200.193 98.9427 200.656 98.9011C201.401 99.8438 202.266 100.688 203.229 101.406L203.479 101.594L203.484 101.583C203.87 101.854 204.266 102.115 204.682 102.349C205.01 102.531 205.339 102.703 205.677 102.859L205.672 102.87L205.948 102.99C206.969 103.438 208.036 103.76 209.135 103.953C208.51 104.927 207.729 105.781 206.802 106.49ZM191.937 103.234C191.38 102.182 191.021 101.052 190.87 99.8698C191.297 99.4375 191.75 99.0261 192.219 98.6511C193.792 97.3854 195.286 96.6719 196.26 96.2917C197.917 95.6458 199.667 95.3073 201.464 95.2813C201.307 96.3438 201.016 97.375 200.599 98.3646C198.859 98.5208 197.151 99.0625 195.641 99.9323C194.198 100.76 192.927 101.896 191.937 103.234ZM204.604 89.4011C204.865 90.3386 205.036 91.3021 205.115 92.2656C205.401 95.8958 204.323 98.8646 203.302 100.786C202.479 100.141 201.74 99.4011 201.094 98.5833C201.375 97.9167 201.604 97.2292 201.771 96.5261C201.776 96.5156 201.776 96.5052 201.781 96.4948C201.802 96.4011 201.823 96.3125 201.844 96.2188C201.849 96.1823 201.859 96.1511 201.865 96.1146C201.875 96.0625 201.885 96.0104 201.896 95.9583C201.906 95.9063 201.917 95.8542 201.927 95.8021C201.932 95.7708 201.937 95.7344 201.943 95.6979C201.953 95.6406 201.964 95.5833 201.974 95.5261C201.974 95.5052 201.979 95.4844 201.979 95.4636C202 95.3438 202.016 95.224 202.031 95.1042C202.036 95.0833 202.036 95.0625 202.042 95.0417V95.0156C202.047 94.9948 202.047 94.9792 202.052 94.9583L202.078 94.7396H202.073C202.104 94.4063 202.125 94.0677 202.13 93.724C202.141 93.224 202.12 92.7188 202.073 92.2136H202.078L202.031 91.875C201.922 90.9844 201.719 90.1146 201.427 89.2708C201.422 89.25 201.411 89.224 201.406 89.1979C201.391 89.1667 201.38 89.1302 201.37 89.0938C201.349 89.0365 201.328 88.9792 201.302 88.9219C201.297 88.9011 201.286 88.8802 201.281 88.8646C201.26 88.8125 201.245 88.7604 201.224 88.7136C201.219 88.6979 201.208 88.6823 201.203 88.6667C201.198 88.6563 201.198 88.6458 201.193 88.6354C202.375 88.6823 203.521 88.9427 204.604 89.4011ZM191.302 95.4063C192.635 91.4583 196.37 88.6823 200.604 88.625C201.01 89.5781 201.292 90.5781 201.448 91.6042C200.083 91.4844 198.125 91.5365 196.016 92.3125C193.917 93.0833 192.37 94.3021 191.302 95.4063ZM202.932 108.302C202.229 108.458 201.51 108.542 200.781 108.542H200.745C197.276 108.542 194.031 106.708 192.229 103.75C192.25 103.719 192.276 103.688 192.297 103.656C192.307 103.641 192.318 103.625 192.333 103.609C192.828 102.927 193.401 102.302 194.036 101.745C194.818 103.188 195.828 104.443 197.052 105.484C198.13 106.396 199.354 107.125 200.698 107.646C201.411 107.922 202.161 108.141 202.932 108.302ZM210.703 98.6198C210.698 99.8906 210.458 101.13 209.984 102.302C209.891 102.526 209.786 102.755 209.682 102.984C209.604 103.146 209.521 103.302 209.432 103.453C208.406 103.292 207.401 103.01 206.437 102.615C207.135 101.333 207.667 99.9792 208.01 98.5781C208.531 96.474 208.63 94.3021 208.318 92.1094C209.865 93.9115 210.703 96.1771 210.703 98.5833V98.6198ZM190.786 98.5833C190.786 97.8958 190.854 97.224 190.99 96.5729C191.974 95.3646 193.672 93.7448 196.198 92.8177C198.281 92.0521 200.208 92.0261 201.521 92.1511C201.578 92.6719 201.604 93.1927 201.594 93.7136C201.583 94.0573 201.562 94.4011 201.531 94.7396C199.646 94.7604 197.807 95.1094 196.062 95.7865C195.052 96.1823 193.505 96.9219 191.88 98.2292C191.51 98.5261 191.151 98.8438 190.802 99.1719C190.792 98.9792 190.786 98.7813 190.786 98.5833ZM211.245 98.6042C211.245 98.3229 211.229 97.9271 211.193 97.5573C211.161 97.2292 211.12 96.9531 211.115 96.9115C211.115 96.9115 211.099 96.8229 211.083 96.7292C210.88 95.5781 210.427 94.5 210.427 94.5C210.078 93.6875 209.411 92.4011 208.172 91.1563C207.964 90.9531 206.635 89.6458 204.76 88.875C204.76 88.875 203.51 88.3542 202.13 88.1719C202.125 88.1719 202.115 88.1719 202.115 88.1719C202.068 88.1667 201.88 88.1406 201.615 88.1198C201.349 88.099 201.141 88.0886 201.068 88.0886C200.448 88.0677 199.943 88.1094 199.635 88.1406C199.635 88.1406 199.505 88.1563 199.38 88.1719C198.01 88.349 196.724 88.8802 196.724 88.8802C194.979 89.599 193.797 90.6927 193.432 91.0469C192.88 91.5833 191.802 92.75 191.062 94.5052C190.698 95.3698 190.526 96.125 190.437 96.5625C190.339 97.0729 190.245 97.7604 190.245 98.5833C190.245 99.0365 190.276 99.4115 190.302 99.6719C190.443 101.052 190.828 102.094 191.036 102.589C191.198 102.99 191.437 103.5 191.786 104.068L191.891 104.24V104.234C192.297 104.87 192.776 105.464 193.323 106.005C195.094 107.781 197.396 108.844 199.87 109.047H199.875C199.927 109.052 199.979 109.057 200.031 109.057C200.062 109.063 200.094 109.063 200.125 109.063C200.177 109.068 200.229 109.068 200.281 109.073C200.333 109.073 200.391 109.078 200.448 109.078C200.469 109.078 200.495 109.078 200.516 109.078C200.594 109.083 200.672 109.083 200.745 109.083C200.755 109.083 200.76 109.083 200.771 109.083H200.776C200.995 109.083 201.208 109.073 201.422 109.063C201.432 109.063 201.448 109.057 201.458 109.057C201.521 109.052 201.589 109.047 201.656 109.042C201.656 109.042 201.667 109.042 201.677 109.042C203.12 108.917 204.484 108.401 204.484 108.401C206.74 107.547 208.219 105.969 208.505 105.656C209.318 104.771 209.797 103.943 210.01 103.542C210.234 103.12 210.641 102.292 210.927 101.172C210.979 100.969 211.24 99.8906 211.245 98.6042Z" fill="white"/>
</g>
</g>
<defs>
<clipPath id="clip0_24_4527">
<rect width="324" height="161" fill="white"/>
</clipPath>
</defs>
</svg>
