<svg width="28" height="29" viewBox="0 0 28 29" fill="none" xmlns="http://www.w3.org/2000/svg">
<rect y="0.125" width="28" height="28" rx="14" fill="white" fill-opacity="0.5"/>
<path d="M11.6667 15.9918L18.55 9.10843C18.7639 8.89454 19.0361 8.7876 19.3667 8.7876C19.6972 8.7876 19.9695 8.89454 20.1833 9.10843C20.3972 9.32232 20.5042 9.59454 20.5042 9.9251C20.5042 10.2557 20.3972 10.5279 20.1833 10.7418L12.4833 18.4418C12.25 18.6751 11.9778 18.7918 11.6667 18.7918C11.3556 18.7918 11.0833 18.6751 10.85 18.4418L7.81668 15.4084C7.60279 15.1945 7.49585 14.9223 7.49585 14.5918C7.49585 14.2612 7.60279 13.989 7.81668 13.7751C8.03057 13.5612 8.30279 13.4543 8.63335 13.4543C8.96391 13.4543 9.23613 13.5612 9.45002 13.7751L11.6667 15.9918Z" fill="#1B1B1B" fill-opacity="0.5"/>
<rect x="0.75" y="0.875" width="26.5" height="26.5" rx="13.25" stroke="#1B1B1B" stroke-opacity="0.6" stroke-width="1.5"/>
</svg>
