<svg width="30" height="30" viewBox="0 0 30 30" fill="none" xmlns="http://www.w3.org/2000/svg">
<rect width="30" height="30" rx="5" fill="#424242"/>
<path d="M20.1923 9.68157C20.5419 9.67568 20.8781 9.81654 21.1191 10.0699C21.3696 10.3212 21.507 10.6637 21.4997 11.0185V18.9816C21.507 19.3364 21.3696 19.6788 21.1191 19.9301C20.8777 20.1843 20.5407 20.3255 20.1902 20.3192H9.80983C9.45934 20.3255 9.12232 20.1843 8.88094 19.9301C8.63041 19.6788 8.49297 19.3364 8.50028 18.9816V11.0185C8.49297 10.6637 8.63041 10.3212 8.88094 10.0699C9.12232 9.81574 9.45934 9.67457 9.80983 9.68087L20.1923 9.68157ZM20.1923 12.3567V11.0185L14.9856 14.347L9.80983 11.0185V12.356L14.9863 15.651L20.1923 12.3567Z" fill="white" fill-opacity="0.9"/>
</svg>
