<svg width="31" height="30" viewBox="0 0 31 30" fill="none" xmlns="http://www.w3.org/2000/svg">
<rect width="31" height="30" rx="5" fill="#424242"/>
<path d="M20.039 9.441C19.8373 9.441 19.6401 9.50082 19.4723 9.6129C19.3046 9.72498 19.1738 9.88428 19.0966 10.0707C19.0194 10.257 18.9992 10.4621 19.0386 10.66C19.078 10.8579 19.1751 11.0396 19.3178 11.1822C19.4604 11.3249 19.6421 11.422 19.84 11.4614C20.0379 11.5008 20.243 11.4806 20.4293 11.4034C20.6157 11.3262 20.775 11.1954 20.8871 11.0277C20.9992 10.8599 21.059 10.6627 21.059 10.461C21.059 10.1905 20.9515 9.93104 20.7602 9.73975C20.569 9.54846 20.3095 9.441 20.039 9.441ZM23.949 11.498C23.9325 10.7928 23.8004 10.095 23.558 9.4325C23.3419 8.86566 23.0055 8.35239 22.572 7.928C22.1511 7.49231 21.6366 7.15805 21.0675 6.9505C20.4068 6.70074 19.7082 6.56563 19.002 6.551C18.101 6.5 17.812 6.5 15.5 6.5C13.188 6.5 12.899 6.5 11.998 6.551C11.2918 6.56563 10.5932 6.70074 9.9325 6.9505C9.36442 7.16015 8.85039 7.49413 8.428 7.928C7.99231 8.3489 7.65805 8.86337 7.4505 9.4325C7.20074 10.0932 7.06563 10.7918 7.051 11.498C7 12.399 7 12.688 7 15C7 17.312 7 17.601 7.051 18.502C7.06563 19.2082 7.20074 19.9068 7.4505 20.5675C7.65805 21.1366 7.99231 21.6511 8.428 22.072C8.85039 22.5059 9.36442 22.8398 9.9325 23.0495C10.5932 23.2993 11.2918 23.4344 11.998 23.449C12.899 23.5 13.188 23.5 15.5 23.5C17.812 23.5 18.101 23.5 19.002 23.449C19.7082 23.4344 20.4068 23.2993 21.0675 23.0495C21.6366 22.8419 22.1511 22.5077 22.572 22.072C23.0074 21.6492 23.3441 21.1355 23.558 20.5675C23.8004 19.905 23.9325 19.2072 23.949 18.502C23.949 17.601 24 17.312 24 15C24 12.688 24 12.399 23.949 11.498ZM22.419 18.4C22.4128 18.9396 22.3151 19.4741 22.13 19.981C21.9943 20.3509 21.7763 20.6852 21.4925 20.9585C21.2168 21.2394 20.8832 21.457 20.515 21.596C20.0081 21.7811 19.4736 21.8788 18.934 21.885C18.084 21.9275 17.7695 21.936 15.534 21.936C13.2985 21.936 12.984 21.936 12.134 21.885C11.5738 21.8955 11.0159 21.8092 10.485 21.63C10.1329 21.4839 9.81465 21.2669 9.55 20.9925C9.26788 20.7194 9.05262 20.3849 8.921 20.015C8.71348 19.5009 8.59838 18.9542 8.581 18.4C8.581 17.55 8.53 17.2355 8.53 15C8.53 12.7645 8.53 12.45 8.581 11.6C8.58481 11.0484 8.68551 10.5018 8.8785 9.985C9.02814 9.62622 9.25783 9.30641 9.55 9.05C9.80824 8.75774 10.1274 8.52563 10.485 8.37C11.0031 8.18304 11.5492 8.08532 12.1 8.081C12.95 8.081 13.2645 8.03 15.5 8.03C17.7355 8.03 18.05 8.03 18.9 8.081C19.4396 8.08719 19.9741 8.18491 20.481 8.37C20.8673 8.51335 21.2139 8.74642 21.4925 9.05C21.771 9.3111 21.9887 9.63032 22.13 9.985C22.3189 10.5026 22.4167 11.049 22.419 11.6C22.4615 12.45 22.47 12.7645 22.47 15C22.47 17.2355 22.4615 17.55 22.419 18.4ZM15.5 10.6395C14.6379 10.6412 13.7957 10.8983 13.0798 11.3785C12.3638 11.8587 11.8062 12.5403 11.4775 13.3372C11.1488 14.1341 11.0636 15.0106 11.2328 15.8559C11.402 16.7012 11.818 17.4774 12.4282 18.0863C13.0383 18.6953 13.8153 19.1098 14.6609 19.2773C15.5066 19.4449 16.3829 19.358 17.1791 19.0278C17.9754 18.6975 18.6559 18.1386 19.1347 17.4217C19.6135 16.7048 19.869 15.8621 19.869 15C19.8701 14.4263 19.7578 13.8581 19.5386 13.328C19.3193 12.7979 18.9974 12.3164 18.5913 11.9111C18.1853 11.5059 17.7032 11.1849 17.1726 10.9667C16.6421 10.7485 16.0737 10.6373 15.5 10.6395ZM15.5 17.8305C14.9402 17.8305 14.3929 17.6645 13.9275 17.3535C13.462 17.0425 13.0992 16.6004 12.885 16.0832C12.6707 15.566 12.6147 14.9969 12.7239 14.4478C12.8331 13.8987 13.1027 13.3944 13.4985 12.9985C13.8944 12.6027 14.3987 12.3331 14.9478 12.2239C15.4969 12.1147 16.066 12.1707 16.5832 12.385C17.1004 12.5992 17.5425 12.962 17.8535 13.4275C18.1645 13.8929 18.3305 14.4402 18.3305 15C18.3305 15.3717 18.2573 15.7398 18.115 16.0832C17.9728 16.4266 17.7643 16.7386 17.5015 17.0015C17.2386 17.2643 16.9266 17.4728 16.5832 17.615C16.2398 17.7573 15.8717 17.8305 15.5 17.8305Z" fill="white" fill-opacity="0.9"/>
</svg>
