<svg width="31" height="30" viewBox="0 0 31 30" fill="none" xmlns="http://www.w3.org/2000/svg">
<rect width="31" height="30" rx="5" fill="#424242"/>
<path d="M16.3333 22.5H13V12.5H16.3333V14.1667C16.6842 13.7202 17.1296 13.357 17.6375 13.103C18.1453 12.849 18.7031 12.7105 19.2708 12.6975C20.2636 12.703 21.2138 13.102 21.9128 13.807C22.6119 14.512 23.0029 15.4655 23 16.4583V22.5H19.6667V16.875C19.6022 16.4246 19.3772 16.0127 19.0332 15.7151C18.6891 15.4174 18.2491 15.254 17.7942 15.255C17.5905 15.2614 17.3903 15.3089 17.2055 15.3947C17.0207 15.4804 16.8551 15.6025 16.7187 15.7538C16.5823 15.9051 16.4778 16.0824 16.4116 16.2751C16.3454 16.4677 16.3187 16.6718 16.3333 16.875V22.5ZM11.3333 22.5H8V12.5H11.3333V22.5ZM9.66666 10.8333C9.22464 10.8333 8.80072 10.6577 8.48815 10.3452C8.17559 10.0326 8 9.60869 8 9.16666C8 8.72464 8.17559 8.30072 8.48815 7.98815C8.80072 7.67559 9.22464 7.5 9.66666 7.5C10.1087 7.5 10.5326 7.67559 10.8452 7.98815C11.1577 8.30072 11.3333 8.72464 11.3333 9.16666C11.3333 9.60869 11.1577 10.0326 10.8452 10.3452C10.5326 10.6577 10.1087 10.8333 9.66666 10.8333Z" fill="white" fill-opacity="0.9"/>
</svg>
