<svg width="121" height="60" viewBox="0 0 121 60" fill="none" xmlns="http://www.w3.org/2000/svg">
<path d="M107.053 18.4114C106.902 18.5643 105.835 18.6398 105.607 18.6786C104.426 18.907 103.245 19.06 102.103 19.2129C99.8163 19.5168 97.4157 19.4781 95.1681 19.8595C95.2068 18.6786 93.2263 16.7736 92.3493 18.2217C92.0841 18.6398 92.0066 19.2129 91.8556 19.6698C91.7027 20.1634 91.7027 20.0879 91.2845 20.2022C90.9787 20.3164 90.5218 20.3164 90.2178 20.3164C89.6835 20.3938 89.1879 20.3938 88.6555 20.4306C87.9702 20.4693 87.2074 20.4306 86.9403 21.1934C86.2937 23.2126 89.4163 23.2881 90.5973 23.2126C90.4076 23.745 90.2546 24.2793 90.0262 24.8504C89.9894 25.0014 89.5306 26.374 89.608 26.374L89.8364 26.0681C89.3021 27.5162 88.3884 29.0785 87.7417 30.6021C87.3604 31.5159 87.0545 32.3929 86.7505 33.3066C86.5221 34.0307 86.5221 34.1062 85.7593 34.2959L84.6171 34.4876C84.35 34.5243 84.0073 34.5631 83.7788 34.7915C82.7896 35.8582 84.6946 36.6965 85.5696 36.6578C85.3412 37.2676 82.7509 43.9718 82.7121 43.9718C82.7121 44.0105 82.9793 43.4762 83.2852 42.7154L82.0655 45.8013C82.0655 45.7238 82.1042 45.6483 82.1042 45.6096C81.9513 45.6096 81.3802 47.2106 81.4944 47.2106L81.6454 47.0577C81.4557 47.5146 81.1518 47.6675 81.2273 48.3141C81.3415 48.9995 81.7984 49.5706 82.3695 49.9519C82.8651 50.2946 83.9318 50.9044 84.5416 50.7147C85.1127 50.5231 84.6946 50.5618 84.923 50.2946C85.8368 49.2666 86.0265 47.5901 86.4834 46.2194C86.5976 45.8381 88.0457 41.3428 88.007 41.306L87.856 41.457C87.9702 41.153 88.0844 40.7717 88.2354 40.429C88.2741 40.4677 88.1212 40.7349 88.1986 40.7349C88.4271 40.7717 89.3021 38.1446 89.3796 37.9529C89.5693 37.3818 89.5306 36.5823 89.7977 36.0479C90.0649 35.5543 90.4463 35.5911 90.9787 35.5543C91.4743 35.5156 91.8169 35.3258 92.1209 35.1729C92.5778 34.9832 93.1508 35.0587 93.6077 34.9444C94.2175 34.7915 94.7886 34.716 95.3984 34.5631C96.045 34.4488 96.2735 34.1817 96.7304 34.0675C97.226 33.9532 98.5966 34.0307 98.7496 33.3434C98.9025 32.6213 98.3314 33.0782 98.254 33.0782C97.0363 33.1537 95.8166 32.964 94.597 33.0782C93.3018 33.1537 92.0454 33.2679 90.7502 33.3821C90.7502 33.3434 90.9032 32.5439 90.7115 32.8865L90.8257 32.5826V32.6968C90.9032 32.6968 91.36 31.2119 91.513 30.9835C92.0454 29.9923 92.4268 28.8113 92.7694 27.7059C93.1121 26.5637 93.416 25.4215 93.7587 24.3161L94.0646 23.4778C94.2543 22.9067 94.1401 22.9841 94.6357 22.8312C95.0926 22.717 95.7411 22.6782 96.198 22.6395C98.2172 22.4885 100.083 21.9542 102.103 21.4218C102.596 21.3076 103.473 21.1159 103.891 20.7733C104.273 20.4693 104.197 20.3938 104.693 20.2409C104.958 20.1634 107.701 18.7928 107.053 18.4114ZM88.9595 36.3151C88.4639 37.8774 87.9315 39.4765 87.3604 41.0388C86.8648 42.2953 86.1794 43.5149 85.7225 44.7713C86.675 41.9158 87.8927 39.0971 88.9595 36.2396V36.2764C88.9227 36.4293 88.9227 36.3925 88.9595 36.3151ZM85.7225 36.621L85.2269 37.8019C85.3799 37.3431 85.6083 36.6578 85.7225 36.621ZM88.9982 36.1254V36.1622C88.9595 36.2009 88.9595 36.2009 88.9595 36.2396C88.9595 36.2009 88.9595 36.1622 88.9982 36.1254ZM88.9982 36.1254C88.9982 36.0867 88.9982 36.0479 89.0369 36.0112V36.0479C89.0369 36.0479 88.9982 36.0867 88.9982 36.1254Z" fill="white"/>
<path d="M107.813 36.9637C107.738 36.468 107.204 36.621 106.938 36.8107C106.596 37.0392 104.691 39.554 104.842 39.7437C104.956 39.7437 105.033 39.7437 105.109 39.6682C104.576 40.3148 103.585 41.0388 102.861 41.6099C102.443 41.9526 101.415 42.9051 100.805 42.6011C99.51 41.9526 102.137 37.3818 102.023 37.3431C101.909 37.3063 100.956 39.4397 100.766 39.9334C101.223 38.6015 101.833 37.2676 102.557 36.0867C102.518 36.2009 102.404 36.3925 102.48 36.3925C102.557 36.4293 103.128 35.6298 103.014 35.5543C102.975 35.5543 102.9 35.5543 102.861 35.5911C102.975 35.4768 103.167 35.4401 103.167 35.2116C103.167 34.8302 102.29 34.4488 101.986 34.3346C101.262 34.0307 100.538 33.9532 99.9669 34.3346C99.2041 34.7915 99.0531 35.7053 98.7473 36.5068C98.6718 36.7352 97.9477 39.4397 98.1007 39.4765C98.1762 39.4397 98.1762 39.401 98.2149 39.3255L98.1007 40.0108C98.0619 40.0108 98.1374 39.8192 98.0619 39.8192C97.758 39.8192 97.8335 41.1918 97.8722 41.3815C98.0232 42.0668 98.5575 42.5624 98.9757 43.1335C99.2041 43.4762 99.4326 43.8189 99.7753 44.0473C100.234 44.3919 99.9282 44.0473 100.234 44.2002H100.157C100.12 44.4287 101.566 44.8101 101.872 44.7714C103.204 44.4674 104.156 42.8296 104.919 41.8016C105.643 40.8859 106.251 39.9721 106.9 39.0196C107.281 38.524 107.966 37.6877 107.813 36.9637ZM101.148 32.1625C101.223 32.2767 101.109 32.4297 101.376 32.5826C101.643 32.6968 101.794 32.5439 102.023 32.4684C102.48 32.2767 102.824 31.783 103.167 31.4772C103.281 31.4017 103.053 31.4404 103.053 31.4404C103.546 30.9835 103.128 31.5159 103.585 31.2487C104.042 30.9448 104.12 30.4492 104.499 30.031C104.042 30.2207 103.699 30.4879 103.395 30.8673C103.014 31.3629 102.747 31.5914 102.329 31.8585C102.786 31.5159 103.014 31.1732 103.395 30.5634C103.51 30.4492 103.624 30.3737 103.775 30.2962C103.661 30.182 103.661 30.0678 103.814 29.9536C103.928 29.7638 104.156 29.6883 104.271 29.4967C104.462 29.2295 104.423 28.8869 104.652 28.6216C104.842 28.4687 105.109 28.3545 105.262 28.2015C105.604 27.8976 105.986 27.3265 105.833 26.8309C105.68 26.374 105.3 25.8029 104.88 25.5357C104.385 25.2686 103.699 25.1543 103.167 25.3828C103.053 25.4215 102.596 25.5357 102.747 25.6887C102.786 25.7642 102.824 25.7642 102.9 25.7642C102.557 26.0313 101.986 26.4882 102.786 26.7922C102.71 26.8677 102.786 27.2123 102.786 27.249C102.747 27.5162 102.215 28.9256 101.872 29.6109L102.329 28.9256C102.062 29.4967 101.758 30.031 101.415 30.4879C101.643 29.9923 101.187 30.5634 101.187 30.6776C100.766 30.4879 100.881 31.6688 100.919 31.783C100.919 31.8198 101.148 32.1625 101.148 32.1625ZM100.424 41.2286V41.2673L100.348 41.4957L100.424 41.1918C100.463 41.1531 100.463 41.1531 100.424 41.2286ZM101.68 29.9168C101.68 29.9168 101.758 29.8393 101.833 29.6883L101.68 29.9168ZM101.301 30.6389C101.301 30.6776 101.301 30.6776 101.262 30.7163C101.262 30.7163 101.262 30.6776 101.223 30.6776C101.262 30.6776 101.262 30.6776 101.301 30.6389Z" fill="white"/>
<path d="M120.499 26.525C120.46 25.9926 119.889 26.4108 119.583 26.4108C118.059 26.4882 116.536 26.4882 115.051 26.5637C115.051 26.525 115.126 26.374 115.24 26.1455C115.089 26.4108 114.973 26.5637 114.859 26.5637C116.003 24.2406 117.221 21.9174 118.669 19.784C118.63 19.8595 118.059 20.812 118.098 20.812C118.212 20.8507 119.622 18.907 119.66 18.6398C119.66 18.4888 119.318 18.8683 119.318 18.8315C119.546 18.6031 119.925 18.4114 120.04 18.1075C120.307 17.3447 119.507 17.002 118.936 16.8878C117.755 16.6594 116.421 16.8123 115.661 17.8035C114.937 18.6786 114.402 19.7066 113.945 20.7365C113.717 21.1934 113.413 21.3076 113.107 21.7258C112.65 22.3743 112.346 23.1351 112.004 23.8592C111.698 24.5077 111.394 25.193 111.127 25.8784C110.974 26.221 110.974 26.4882 110.631 26.6024C110.288 26.7534 109.642 26.6392 109.26 26.6779C107.775 26.8676 106.327 26.7921 104.842 26.9451C104.08 26.9838 103.319 26.9838 102.595 27.249C102.442 27.2877 101.604 27.4775 101.528 27.5917C101.3 28.0118 102.213 28.0486 102.403 28.0873C103.851 28.279 105.679 28.43 107.127 28.1628C108.118 27.9731 109.146 28.0486 110.213 27.9731C109.678 29.1153 109.26 30.3349 108.842 31.5546L108.385 32.8865C108.232 33.3066 107.737 34.1062 107.737 34.5631C107.737 34.6386 107.851 34.4488 107.926 34.2591C107.737 34.8302 107.508 35.4013 107.355 35.9724C107.355 35.9337 107.47 35.4768 107.433 35.4768C107.241 35.4768 106.48 37.8019 106.403 37.9916C106.023 39.1338 105.603 40.2761 105.414 41.4957C105.185 42.7154 104.879 43.8963 104.614 45.0772C104.461 45.687 104.308 46.2582 104.233 46.866C104.155 47.1719 104.08 47.5146 104.08 47.8185C104.08 47.896 104.08 48.3916 104.155 48.2386L104.08 48.9995V48.4284C103.851 48.6955 104.08 49.9152 104.118 50.1436C104.269 50.9044 104.651 51.5898 105.336 52.0467C105.946 52.5055 106.898 52.9236 107.622 52.581C108.575 52.1241 109.375 51.0574 109.984 50.2946C111.318 48.7342 112.536 47.0964 113.756 45.4567C114.859 43.9331 116.003 42.4482 116.956 40.8491C117.488 39.9334 118.516 39.0971 118.859 38.0671C119.05 37.5715 118.936 36.9636 118.326 37.0779C117.831 37.1921 117.145 38.524 116.841 38.9054C115.469 40.6207 114.174 42.3727 112.803 44.086L110.594 46.7905C110.252 47.1719 109.909 47.5901 109.527 47.9715C109.375 48.1612 108.422 48.924 108.461 49.1524C108.461 49.2279 108.879 48.8852 109.032 48.771C108.842 48.9995 108.614 49.1911 108.422 49.3808C108.461 49.3421 107.661 49.8009 107.547 49.7235C106.823 49.4196 107.47 47.2106 107.584 46.6763C108.269 43.5904 109.299 40.4677 110.327 37.496C110.937 35.8582 111.547 34.2959 112.232 32.6968C112.575 31.8973 112.917 31.059 113.299 30.2594L113.831 28.8113L113.413 29.6496C113.678 28.9643 114.06 27.9344 114.288 27.8976L114.174 28.126C114.251 28.0118 114.327 27.9344 114.402 27.8976C114.822 27.6304 115.889 27.8976 116.383 27.8976C116.727 27.8976 117.145 27.9344 117.488 27.8201C117.717 27.7446 117.641 27.6304 117.908 27.5549C118.365 27.4775 118.936 27.7834 119.432 27.6304C119.889 27.5162 120.535 27.098 120.499 26.5637V26.525ZM113.26 28.7358C111.547 32.3541 110.252 36.2396 108.879 40.0108C108.232 41.7242 107.622 43.5149 107.204 45.3057L107.013 46.0297C107.28 44.6571 107.584 43.3252 107.965 41.9913C108.803 39.0583 109.87 36.1622 111.127 33.3821C113.26 28.6216 115.165 23.5165 118.212 19.2129C116.154 22.1459 114.784 25.497 113.26 28.7358ZM115.775 24.9646L116.689 23.2126C116.499 23.2494 116.154 24.0876 115.775 24.9646ZM111.851 33.2679C111.583 33.992 111.28 34.6773 110.974 35.3626C111.28 34.6386 111.547 33.8777 111.889 33.115C111.851 33.1924 111.851 33.2292 111.851 33.2679ZM115.279 26.0681L115.661 25.2298C115.546 25.5357 115.393 25.8397 115.279 26.0681ZM106.974 50.0662C106.937 50.0662 106.898 50.0294 106.86 49.9907L106.974 50.0662Z" fill="white"/>
<path d="M41.9123 4.51464C41.1999 6.41575 40.4371 8.28975 39.6279 10.1367C31.16 29.3065 23.8963 45.7504 17.8368 59.4725C16.4216 59.73 16.1351 58.8956 16.9772 56.9712C18.5512 52.7838 21.3099 46.128 25.2554 36.9999C29.1989 27.8739 33.2179 18.7768 37.3125 9.71074C38.143 7.86384 38.9038 5.99371 39.5969 4.10422C39.6163 4.0171 39.653 3.92611 39.7053 3.83319C39.8486 3.48859 39.9705 3.11301 40.0693 2.71033C40.1719 2.30378 40.1874 1.86239 40.1157 1.38614C39.4846 1.49456 38.9116 1.67847 38.3966 1.93595C38.2572 1.98822 38.1333 2.03275 38.0249 2.0676C33.1966 4.07712 28.1554 6.69065 22.9012 9.91208C17.6451 13.1296 13.0743 16.4866 9.18695 19.9868C8.35449 20.7515 7.54913 21.5472 6.77088 22.3719C5.99069 23.1985 5.26084 24.0813 4.57938 25.0203C3.81468 26.0173 3.24938 27.1246 2.88349 28.3424C2.21171 30.6035 2.88542 32.3227 4.90462 33.4997C6.31787 34.3012 7.72724 34.8375 9.13274 35.1104C10.5363 35.3853 11.8586 35.5112 13.0976 35.4899C14.3405 35.4705 15.4168 35.4047 16.3267 35.2963C16.7023 35.2769 17.0276 35.2537 17.3025 35.2266C17.4825 35.2072 17.6626 35.215 17.8445 35.2498C18.0304 35.2808 18.1891 35.3815 18.3246 35.5518C18.5453 35.8577 18.2627 36.092 17.4728 36.2565C16.6868 36.4172 15.6143 36.4966 14.2514 36.4966C12.8924 36.4966 11.452 36.4153 9.93035 36.2488C7.2297 35.8732 5.13306 35.2944 3.64238 34.5142C2.7228 34.0554 1.96197 33.4204 1.35795 32.6092C0.655204 31.6335 0.38417 30.5629 0.544855 29.3955C0.688115 28.1681 1.06756 27.0336 1.6832 25.996C2.69957 24.2981 3.9076 22.7649 5.3073 21.3962C7.73886 18.8988 10.5615 16.4788 13.779 14.1402C17.0005 11.8016 20.3342 9.63717 23.784 7.64314C27.2378 5.65105 30.5308 3.91063 33.6651 2.42381C35.0997 1.77333 36.5536 1.16738 38.0249 0.604017C38.7257 0.32524 39.4594 0.131645 40.2241 0.0232314C40.441 -0.00774381 40.6307 -0.00774381 40.7972 0.0232314C42.2104 -0.0425912 42.799 0.673712 42.5628 2.17601C42.4176 2.9775 42.2008 3.75575 41.9123 4.51464Z" fill="white"/>
<path d="M44.1784 40.8563C44.3836 40.9086 44.492 40.9841 44.5036 41.0809C44.5133 41.1797 44.5191 41.2281 44.5191 41.2281C44.281 41.6462 44.01 42.0295 43.706 42.3741C43.0033 43.1543 42.1882 43.7758 41.259 44.2404C40.804 44.4998 40.2871 44.6392 39.7102 44.6586C38.388 44.6799 37.782 44.0371 37.8904 42.7304C37.9369 42.4516 38.0008 42.1786 38.084 41.9095C38.1305 41.7856 38.1634 41.6598 38.1847 41.5301C38.3125 41.0558 38.3492 40.7925 38.2931 40.7402C38.2408 40.684 38.086 40.8176 37.8285 41.1429C37.7607 41.2009 37.6968 41.2648 37.6349 41.3365C37.2419 41.8127 36.8373 42.2773 36.4191 42.7304C35.6602 43.5977 34.789 44.3294 33.8094 44.9218C33.2248 45.2684 32.6091 45.4523 31.9587 45.4717C30.89 45.5239 30.2918 45.0361 30.1621 44.0081C30.1118 43.5899 30.1292 43.1795 30.2163 42.7768C30.6558 41.0945 31.525 39.8148 32.826 38.9359C34.1308 38.0531 35.6254 37.7414 37.3096 37.9989C37.7839 38.1383 38.1305 38.0105 38.3473 37.6117C38.4344 37.4626 38.5254 37.3097 38.6183 37.1548C39.0714 36.3707 39.5166 35.5886 39.9503 34.8084C40.7711 33.3061 41.5958 31.7942 42.4283 30.2706C43.0981 29.0741 43.7699 27.8661 44.4417 26.6465C44.643 26.2748 44.8618 25.9166 45.0999 25.5701C45.2083 25.3997 45.3419 25.299 45.5026 25.2681C45.6671 25.2332 45.8394 25.2138 46.0214 25.2138C46.0563 25.2138 46.1008 25.2138 46.1531 25.2138C46.3486 25.2138 46.5054 25.2642 46.6254 25.361C46.7435 25.4597 46.7687 25.5914 46.7029 25.7559C46.5732 26.1741 46.4183 26.5729 46.2383 26.9485C45.3284 28.7663 44.4727 30.6074 43.6673 32.4698C42.862 34.3341 42.0663 36.2101 41.2822 38.0996C41.0286 38.7558 40.7673 39.4083 40.5001 40.0587C40.1748 40.8176 39.9038 41.5998 39.687 42.4051C39.625 42.5813 39.5941 42.7575 39.5941 42.9317C39.5941 43.1021 39.6792 43.2531 39.8496 43.3808C39.958 43.4486 40.0703 43.4621 40.1903 43.4195C40.3084 43.3731 40.4381 43.3228 40.5775 43.2647C40.593 43.2337 40.6201 43.2085 40.6627 43.1872C41.6016 42.6452 42.4612 41.9928 43.2414 41.2281C43.3692 41.1003 43.5066 40.9919 43.6518 40.9028C43.7951 40.8157 43.9713 40.8002 44.1784 40.8563ZM36.8528 39.8961C36.9612 39.7161 36.9921 39.5457 36.9457 39.385C36.9031 39.2205 36.7927 39.0985 36.6127 39.0211C36.2449 38.8255 35.8557 38.8004 35.4434 38.9436C34.4212 39.2534 33.5655 39.84 32.8802 40.7015C32.1929 41.5591 31.8212 42.5058 31.7651 43.5435C31.7844 43.5957 31.796 43.6325 31.796 43.6519C31.796 43.7409 31.796 43.828 31.796 43.9152C31.8832 44.3914 32.1755 44.4843 32.6711 44.1939C33.1706 43.8997 33.732 43.4273 34.3515 42.7768C34.971 42.1225 35.5228 41.4991 36.0087 40.9106C36.4985 40.322 36.7792 39.9852 36.8528 39.8961Z" fill="white"/>
<path d="M51.8617 42.9704C51.2886 43.5338 50.6188 44.0158 49.856 44.4185C49.0971 44.8173 48.4583 45.0767 47.9433 45.2006C47.4322 45.3245 46.9018 45.3942 46.3558 45.4097C45.4885 45.4523 44.687 45.3361 43.9552 45.0612C42.7588 44.5772 42.3426 43.6499 42.7085 42.2812C43.055 41.1041 43.7558 40.1865 44.8148 39.5244C45.8718 38.8643 46.9637 38.5448 48.0904 38.5642C48.0904 38.5642 48.1001 38.5642 48.1214 38.5642C48.4099 38.5448 48.6809 38.5622 48.9345 38.6184C49.372 38.7791 49.6508 39.0366 49.7708 39.3928C49.8889 39.749 49.8096 40.1439 49.5308 40.5776C48.8997 41.5378 48.0401 42.0721 46.9521 42.1805C46.228 42.2483 45.5311 42.2154 44.8613 42.0799C44.7316 42.0605 44.6173 42.0934 44.5205 42.1805C44.4218 42.2696 44.3618 42.378 44.3424 42.5058C44.1411 43.3576 44.4005 43.9035 45.1246 44.1397C46.017 44.4456 46.9405 44.4456 47.8968 44.1397C49.0061 43.7951 50.0593 43.1408 51.0563 42.1805C52.0572 41.2203 52.6322 40.775 52.7832 40.8409C52.9381 40.9028 52.9865 41.0867 52.9303 41.3907C52.7909 41.8766 52.4347 42.4032 51.8617 42.9704ZM45.5427 40.5776C45.4808 40.6453 45.4362 40.7228 45.4111 40.8099C45.3898 40.8931 45.4227 40.9686 45.5117 41.0345C45.8563 41.2358 46.2319 41.3113 46.6346 41.259C47.0411 41.2029 47.3857 41.048 47.6645 40.7944C47.9472 40.5427 48.0711 40.233 48.0362 39.8651C48.0053 39.7374 47.9356 39.6561 47.8271 39.6251C47.7187 39.5902 47.6103 39.5825 47.5019 39.6018C46.7682 39.7316 46.1158 40.0568 45.5427 40.5776Z" fill="white"/>
<path d="M62.8013 41.1041C63.0336 41.2397 63.0491 41.5649 62.8477 42.0799C62.5631 42.4516 62.2553 42.8039 61.9262 43.133C61.601 43.4583 61.2467 43.7506 60.8653 44.0081C60.8343 44.0081 60.8188 44.0158 60.8188 44.0313C60.5594 44.2133 60.2884 44.3682 60.0057 44.4959C57.64 45.3439 56.432 44.8425 56.3816 42.9936C55.4214 43.8261 54.7787 44.3372 54.4534 44.5269C53.6732 44.9915 52.8292 45.1987 51.9212 45.1464C51.2456 45.1058 50.7887 44.9025 50.5505 44.5347C50.3086 44.163 50.3299 43.6596 50.6125 43.0246C51.0462 42.0295 51.6657 41.139 52.471 40.353C53.41 39.4857 54.4534 38.7887 55.5995 38.2622C56.2074 37.9582 56.8501 37.8401 57.5277 37.906C58.1976 37.9485 58.6041 38.3299 58.7435 39.052C58.7996 39.2689 58.7454 39.4605 58.5809 39.6251C58.3641 39.8264 58.1104 39.8729 57.822 39.7645C57.8007 39.7645 57.7717 39.7606 57.7368 39.749C57.7058 39.7393 57.6787 39.7238 57.6594 39.7025C57.369 39.3056 57.0786 39.1411 56.7843 39.2069C56.4939 39.2689 56.188 39.4005 55.8628 39.6018C54.3392 40.4905 53.2086 41.7295 52.471 43.3189C52.4284 43.3924 52.4033 43.4699 52.3936 43.5512C52.382 43.6344 52.4091 43.7022 52.471 43.7525C52.6452 43.8106 52.8427 43.7971 53.0595 43.7138C53.2764 43.6325 53.4932 43.5105 53.71 43.3499C53.9307 43.1853 54.1146 43.0478 54.2598 42.9394C54.2792 42.9085 54.2908 42.893 54.2908 42.893C55.0129 42.289 55.7195 41.6694 56.4126 41.0345C56.7166 40.7092 57.0979 40.5292 57.5587 40.4924C58.2092 40.4924 58.4802 40.7847 58.3718 41.3674C58.3098 41.5843 58.244 41.8011 58.1782 42.0179C57.9188 42.9588 57.9091 43.5105 58.1472 43.6751C58.3834 43.8358 58.7474 43.8358 59.2391 43.6751C59.7289 43.5105 60.2168 43.1989 60.7027 42.7381C61.1925 42.2793 61.6048 41.8592 61.9417 41.4759C62.2824 41.0945 62.5689 40.9706 62.8013 41.1041Z" fill="white"/>
<mask id="mask0_201_373" style="mask-type:luminance" maskUnits="userSpaceOnUse" x="52" y="21" width="17" height="21">
<path d="M52.8578 21.3183H68.5777V41.0185H52.8578V21.3183Z" fill="white"/>
</mask>
<g mask="url(#mask0_201_373)">
<path d="M66.9225 34.1149L64.7872 32.0667C64.7872 32.0667 66.2759 28.3071 66.9225 27.13C67.1994 26.6286 67.5304 25.9646 67.7221 25.2308C67.7376 25.2347 67.755 25.2366 67.7744 25.2366C68.0531 25.2366 68.2777 24.8243 68.2777 24.3151C68.2777 23.9337 68.1499 23.6066 67.968 23.4672C67.968 23.4672 67.7163 23.6569 67.6989 24.0267C67.6989 24.0267 67.6292 23.624 67.9486 23.2775C67.8944 22.8709 67.7957 22.6328 67.5575 22.3385C67.1316 21.8177 66.4831 21.6435 65.4957 21.597C64.5704 21.5545 63.9025 21.4422 63.1184 21.357C62.8493 21.326 62.9655 21.8526 63.0371 21.9804C63.1823 22.2359 63.3894 22.3211 64.127 22.5418C64.127 22.5418 63.5366 22.5418 62.9345 22.1972C62.797 22.4469 62.7215 22.776 62.6964 23.1516C63.1784 23.6569 63.0758 24.259 63.0758 24.259C63.0506 23.7227 62.6847 23.4478 62.6847 23.4478C62.4892 23.5737 62.3479 23.9144 62.3479 24.3151C62.3479 24.8243 62.5744 25.2366 62.8532 25.2366C62.8803 25.2366 62.9054 25.2308 62.9306 25.225C63.1494 26.0652 63.492 26.8551 63.8715 27.3217C63.6701 27.5191 63.4785 27.7089 63.2984 27.8502C64.431 27.7979 65.3138 28.5936 65.3138 28.5936C65.3138 28.5936 63.7437 27.6256 62.5299 28.338C60.8475 29.3254 59.0219 28.5936 59.0219 28.5936C59.0219 28.5936 60.6713 28.8956 62.4176 28.0709C62.4563 28.0535 62.4931 28.038 62.5299 28.0225C61.6142 27.6643 60.7662 27.1261 58.5554 28.2161C58.5554 28.2161 57.9823 28.46 57.6551 28.9769C57.6551 28.9769 57.7442 28.5065 58.2437 28.0825C57.8061 27.9257 56.9795 27.734 56.269 28.1735C56.269 28.1735 55.6959 28.4174 55.3688 28.9343C55.3688 28.9343 55.6166 28.3071 56.3135 27.8502C56.4181 27.2113 56.7433 25.7768 57.6396 24.894C57.6803 24.8533 57.719 24.8165 57.7558 24.7856C57.4673 24.8417 57.235 24.9559 57.235 24.9559C57.7016 24.5184 58.1198 24.6946 58.4237 24.6675C58.7838 24.6365 59.2155 24.8223 59.4362 24.7894C59.7324 24.7468 60.197 24.6946 60.3113 24.6307C60.6288 24.4506 60.4119 24.0809 60.1603 24.0693C59.835 24.0538 60.7604 24.0789 60.7352 23.6995C60.6965 23.111 60.7604 22.9232 60.59 22.6928C60.5126 22.5883 59.7324 21.8681 59.4943 21.87C58.8457 21.87 57.8584 22.4857 57.328 22.7276C56.8788 22.9329 56.6717 23.3472 56.4742 23.6763C56.0967 24.3016 52.8578 28.3961 52.8908 29.6371C52.9275 30.9845 55.5527 32.3745 58.2146 31.4743C58.2146 31.4743 58.8477 31.1761 59.2 30.909C59.2 30.909 58.8186 31.3581 58.3521 31.6524C58.5011 31.846 58.6793 32.0977 58.8787 32.39C59.5098 33.1953 60.6772 34.4537 62.1795 35.079C62.1795 35.079 61.3741 34.9764 60.2571 34.5234C60.5087 34.9241 60.7623 35.3307 61.0063 35.7237C61.3063 36.2038 61.6955 36.6239 62.1543 36.953C62.5492 37.2337 62.979 37.4854 63.4417 37.679C63.4417 37.679 62.8628 37.6054 62.0033 37.3054C62.2646 37.7119 62.4834 38.043 62.6363 38.2482C63.0138 38.7593 63.6334 39.2355 63.4669 40.7359L66.9225 34.1149Z" fill="white"/>
</g>
<mask id="mask1_201_373" style="mask-type:luminance" maskUnits="userSpaceOnUse" x="64" y="21" width="15" height="20">
<path d="M64.6129 21.7674H78.1336V40.6004H64.6129V21.7674Z" fill="white"/>
</mask>
<g mask="url(#mask1_201_373)">
<path d="M74.5173 23.6763C74.3179 23.3471 74.1127 22.9328 73.6635 22.7276C73.1331 22.4856 72.1438 21.87 71.4972 21.87C71.2571 21.8681 70.477 22.5882 70.3995 22.6928C70.2292 22.9232 70.295 23.111 70.2563 23.6995C70.2292 24.0789 71.1545 24.0538 70.8293 24.0692C70.5796 24.0809 70.3608 24.4506 70.6802 24.6307C70.7945 24.6946 71.2591 24.7468 71.5533 24.7894C71.774 24.8223 72.2058 24.6365 72.5678 24.6675C72.8717 24.6946 73.2899 24.5184 73.7565 24.9559C73.7565 24.9559 73.5241 24.8417 73.2357 24.7856C73.2725 24.8165 73.3093 24.8533 73.3518 24.894C74.2463 25.7768 74.5715 27.2113 74.678 27.8502C75.373 28.307 75.6227 28.9343 75.6227 28.9343C75.2955 28.4174 74.7206 28.1735 74.7206 28.1735C74.0101 27.734 73.1854 27.9257 72.7459 28.0825C73.2473 28.5065 73.3364 28.9769 73.3364 28.9769C73.0092 28.46 72.4342 28.2161 72.4342 28.2161C71.4469 27.7282 70.7325 27.5675 70.1614 27.5695L69.72 28.3613C71.1642 28.8143 72.3742 28.5936 72.3742 28.5936C72.3742 28.5936 71.0132 29.1376 69.5574 28.6516L67.7937 31.8247L69.6522 33.6329L64.7001 39.3362C64.7001 39.3362 68.3842 41.0146 70.9087 39.4272C69.2128 37.8513 69.0463 37.075 69.2844 36.2038C69.6096 35.0209 71.6056 31.8963 71.6056 31.8963C74.2676 32.7985 78.064 30.9845 78.0988 29.637C78.1317 28.3961 74.8948 24.3016 74.5173 23.6763Z" fill="#414B3B"/>
</g>
<mask id="mask2_201_373" style="mask-type:luminance" maskUnits="userSpaceOnUse" x="70" y="32" width="9" height="9">
<path d="M70.8989 32.7017H78.7047V40.5074H70.8989V32.7017Z" fill="white"/>
</mask>
<g mask="url(#mask2_201_373)">
<path d="M76.0582 40.0873C75.3865 40.0002 74.4166 39.7447 73.5609 39.0168C73.1137 38.6373 72.7458 38.1765 72.467 37.648C72.6355 37.5125 72.8155 37.3886 73.0052 37.2802C73.1388 37.2028 73.2763 37.1331 73.4176 37.0711C73.9326 37.861 74.5927 38.5115 75.3826 39.009C75.8375 39.2955 76.3293 39.524 76.8462 39.6885C76.6022 39.8511 76.337 39.9867 76.0582 40.0873ZM77.3689 33.9387C77.5373 34.8254 77.5179 35.7063 77.3089 36.5542C77.183 37.0614 76.9894 37.5551 76.7339 38.0197C76.6081 37.9617 76.4861 37.8978 76.3641 37.83C76.2092 37.741 76.0602 37.6461 75.9169 37.5416C76.3118 36.804 76.7378 35.654 76.6255 34.2408C76.6003 33.9252 76.55 33.6096 76.4745 33.3018C76.8036 33.4702 77.1056 33.6851 77.3689 33.9387ZM77.0533 39.5433C76.4977 39.3807 75.9711 39.1426 75.4891 38.8406C74.734 38.3643 74.1029 37.7448 73.6073 36.9937C73.8048 36.9182 74.0081 36.8562 74.2152 36.8098C74.223 36.8078 74.2307 36.8059 74.2384 36.804C74.2462 36.804 74.252 36.802 74.2597 36.8001C74.4262 36.7652 74.5966 36.7381 74.7689 36.7226C75.0457 37.0731 75.3671 37.3867 75.7253 37.6538L75.8182 37.7235L75.8201 37.7197C75.9634 37.8203 76.1105 37.9171 76.2654 38.0042C76.3874 38.072 76.5093 38.1359 76.6352 38.194L76.6332 38.1978L76.7358 38.2424C77.1153 38.4089 77.5121 38.5289 77.9206 38.6005C77.6883 38.9625 77.3979 39.28 77.0533 39.5433ZM71.5281 38.3334C71.321 37.9423 71.1874 37.5222 71.1312 37.0827C71.29 36.922 71.4584 36.7691 71.6327 36.6297C72.2173 36.1593 72.7729 35.8941 73.135 35.7527C73.7506 35.5127 74.4011 35.3868 75.069 35.3772C75.0109 35.7721 74.9025 36.1554 74.7476 36.5232C74.101 36.5813 73.466 36.7827 72.9046 37.106C72.3683 37.4138 71.8959 37.8358 71.5281 38.3334ZM76.2363 33.1915C76.3331 33.5399 76.397 33.8981 76.4261 34.2562C76.5325 35.6056 76.1318 36.7091 75.7524 37.4235C75.4465 37.1834 75.1716 36.9085 74.9315 36.6046C75.0361 36.3568 75.1212 36.1012 75.1832 35.8399C75.1851 35.836 75.1851 35.8321 75.1871 35.8282C75.1948 35.7934 75.2025 35.7605 75.2103 35.7256C75.2122 35.7121 75.2161 35.7005 75.218 35.6869C75.2219 35.6676 75.2258 35.6482 75.2297 35.6288C75.2335 35.6095 75.2374 35.5901 75.2413 35.5708C75.2432 35.5591 75.2451 35.5456 75.2471 35.532C75.2509 35.5107 75.2548 35.4894 75.2587 35.4681C75.2587 35.4604 75.2606 35.4527 75.2606 35.4449C75.2684 35.4004 75.2742 35.3559 75.28 35.3113C75.2819 35.3036 75.2819 35.2958 75.2839 35.2881V35.2784C75.2858 35.2707 75.2858 35.2649 75.2877 35.2571L75.2974 35.1758H75.2955C75.3071 35.0519 75.3148 34.9261 75.3168 34.7983C75.3206 34.6125 75.3129 34.4247 75.2955 34.2369H75.2974L75.28 34.111C75.2393 33.78 75.1638 33.4567 75.0554 33.1431C75.0535 33.1353 75.0496 33.1256 75.0477 33.116C75.0419 33.1043 75.038 33.0908 75.0341 33.0772C75.0264 33.056 75.0186 33.0347 75.009 33.0134C75.007 33.0056 75.0031 32.9979 75.0012 32.9921C74.9935 32.9727 74.9877 32.9533 74.9799 32.9359C74.978 32.9301 74.9741 32.9243 74.9722 32.9185C74.9702 32.9146 74.9702 32.9108 74.9683 32.9069C75.4078 32.9243 75.8337 33.0211 76.2363 33.1915ZM71.2919 35.4236C71.7875 33.9562 73.1756 32.9243 74.7495 32.903C74.9005 33.2573 75.0051 33.629 75.0632 34.0104C74.5559 33.9658 73.828 33.9852 73.044 34.2737C72.2638 34.5602 71.6888 35.0132 71.2919 35.4236ZM75.6149 40.217C75.3536 40.2751 75.0864 40.3061 74.8154 40.3061H74.8018C73.5125 40.3061 72.3064 39.6246 71.6365 38.525C71.6443 38.5134 71.6539 38.5018 71.6617 38.4902C71.6656 38.4844 71.6694 38.4786 71.6752 38.4727C71.8592 38.2191 72.0721 37.9868 72.3083 37.7797C72.5987 38.3159 72.9743 38.7825 73.4292 39.1697C73.83 39.5085 74.2849 39.7795 74.7844 39.9731C75.0496 40.0757 75.3284 40.157 75.6149 40.217ZM78.5033 36.6181C78.5014 37.0905 78.4124 37.5512 78.2362 37.9868C78.2013 38.0701 78.1626 38.1553 78.1239 38.2404C78.0949 38.3004 78.0639 38.3585 78.031 38.4147C77.6496 38.3547 77.276 38.2501 76.9178 38.103C77.1772 37.6267 77.3747 37.1234 77.5025 36.6026C77.6961 35.8205 77.7328 35.0132 77.6167 34.1982C78.1917 34.868 78.5033 35.7101 78.5033 36.6046V36.6181ZM71.1003 36.6046C71.1003 36.349 71.1254 36.0993 71.1758 35.8573C71.5417 35.4081 72.1728 34.8061 73.1117 34.4615C73.8861 34.1769 74.6024 34.1672 75.0903 34.2137C75.1116 34.4072 75.1212 34.6008 75.1174 34.7944C75.1135 34.9222 75.1058 35.05 75.0941 35.1758C74.3933 35.1836 73.7099 35.3133 73.0614 35.5649C72.6858 35.7121 72.1108 35.987 71.5068 36.4729C71.3694 36.5833 71.2358 36.7014 71.1061 36.8233C71.1022 36.7517 71.1003 36.6781 71.1003 36.6046ZM78.7047 36.6123C78.7047 36.5078 78.6989 36.3606 78.6853 36.2232C78.6737 36.1012 78.6582 35.9986 78.6563 35.9831C78.6563 35.9831 78.6505 35.9502 78.6447 35.9154C78.5692 35.4875 78.4007 35.0868 78.4007 35.0868C78.271 34.7848 78.0232 34.3066 77.5625 33.8439C77.485 33.7684 76.9914 33.2825 76.2944 32.9959C76.2944 32.9959 75.8298 32.8023 75.3168 32.7346C75.3148 32.7346 75.311 32.7346 75.311 32.7346C75.2935 32.7326 75.2238 32.723 75.1251 32.7152C75.0264 32.7075 74.9489 32.7036 74.9218 32.7036C74.6915 32.6959 74.5037 32.7114 74.3894 32.723C74.3894 32.723 74.341 32.7288 74.2946 32.7346C73.7854 32.8004 73.3073 32.9979 73.3073 32.9979C72.6587 33.265 72.2192 33.6716 72.0837 33.8032C71.8785 34.0026 71.4778 34.4363 71.2029 35.0887C71.0674 35.4101 71.0035 35.6908 70.9706 35.8534C70.9338 36.0431 70.8989 36.2987 70.8989 36.6046C70.8989 36.773 70.9105 36.9124 70.9202 37.0092C70.9725 37.5222 71.1158 37.9094 71.1932 38.0933C71.2532 38.2424 71.3423 38.4321 71.472 38.6431L71.5107 38.707V38.7051C71.6617 38.9412 71.8398 39.1619 72.0431 39.3633C72.7013 40.0234 73.557 40.4184 74.4766 40.4939H74.4785C74.4979 40.4958 74.5172 40.4978 74.5366 40.4978C74.5482 40.4997 74.5598 40.4997 74.5714 40.4997C74.5908 40.5016 74.6101 40.5016 74.6295 40.5036C74.6489 40.5036 74.6702 40.5055 74.6915 40.5055C74.6992 40.5055 74.7089 40.5055 74.7166 40.5055C74.7457 40.5074 74.7747 40.5074 74.8018 40.5074C74.8057 40.5074 74.8076 40.5074 74.8115 40.5074H74.8134C74.8947 40.5074 74.9741 40.5036 75.0535 40.4997C75.0574 40.4997 75.0632 40.4978 75.067 40.4978C75.0903 40.4958 75.1154 40.4939 75.1406 40.4919C75.1406 40.4919 75.1445 40.4919 75.1483 40.4919C75.6846 40.4455 76.1918 40.2538 76.1918 40.2538C77.0301 39.9363 77.5799 39.3497 77.6864 39.2336C77.9884 38.9045 78.1665 38.5966 78.2459 38.4476C78.3291 38.2908 78.4801 37.983 78.5866 37.5667C78.606 37.4912 78.7028 37.0905 78.7047 36.6123Z" fill="#1A2C55"/>
</g>
</svg>
