<svg width="10" height="6" viewBox="0 0 10 6" fill="none" xmlns="http://www.w3.org/2000/svg">
<path d="M4.81519 5.34723C4.66104 5.34753 4.51166 5.29385 4.39296 5.19549L0.43463 1.89688C0.154077 1.6637 0.115679 1.24723 0.348866 0.966674C0.582053 0.686121 0.998522 0.647723 1.27907 0.88091L4.81519 3.83647L8.3513 0.986466C8.48759 0.875784 8.66238 0.823997 8.83697 0.84257C9.01156 0.861143 9.17155 0.948545 9.28151 1.08542C9.40364 1.22255 9.4631 1.40438 9.44557 1.58718C9.42804 1.76998 9.33511 1.9372 9.18914 2.04862L5.23081 5.23508C5.10871 5.31788 4.96237 5.35737 4.81519 5.34723Z" fill="white" fill-opacity="0.9"/>
</svg>
