<svg width="30" height="30" viewBox="0 0 30 30" fill="none" xmlns="http://www.w3.org/2000/svg">
<rect width="30" height="30" rx="5" fill="#424242"/>
<path d="M11.1065 14.1205C12.1361 16.1884 13.8118 17.8641 15.8797 18.8937L17.472 17.3014C17.6521 17.0811 17.959 17.0114 18.2166 17.1323C19.0466 17.406 19.9154 17.5432 20.7893 17.5387C20.9731 17.5401 21.149 17.613 21.2799 17.7419C21.4239 17.871 21.5043 18.0566 21.4998 18.25V20.7886C21.4967 20.9753 21.4173 21.1526 21.2799 21.2792C21.1534 21.4165 20.9761 21.496 20.7893 21.4991C18.6197 21.5168 16.4853 20.95 14.6104 19.8582C12.7521 18.7899 11.2103 17.2481 10.142 15.3899C9.05018 13.5154 8.48313 11.3816 8.50038 9.21239C8.50346 9.02566 8.58294 8.84835 8.72027 8.7218C8.84688 8.58399 9.02451 8.50422 9.21162 8.50115H11.7502C11.9436 8.49672 12.1292 8.57706 12.2583 8.72104C12.3872 8.85194 12.4601 9.0279 12.4615 9.21163C12.457 10.0855 12.5942 10.9544 12.8679 11.7844C12.9659 12.044 12.8993 12.3371 12.6988 12.529L11.1065 14.1205Z" fill="white" fill-opacity="0.9"/>
</svg>
