<svg width="50" height="45" viewBox="0 0 50 45" fill="none" xmlns="http://www.w3.org/2000/svg">
<path d="M45.0001 44.9992C46.3261 44.9992 47.5979 44.4725 48.5356 43.5348C49.4732 42.5971 50 41.3254 50 39.9993V27.7895C50 26.4635 49.4732 25.1917 48.5356 24.254C47.5979 23.3164 46.3261 22.7896 45.0001 22.7896H38.0602C38.0602 21.0346 38.1652 19.2747 38.3702 17.5197C38.6802 15.6597 39.2002 14.0048 39.9202 12.5598C40.6452 11.1098 41.5751 9.97483 42.7151 9.14484C43.8501 8.21486 45.2951 7.74987 47.0551 7.74987V0C44.1601 0 41.6301 0.619989 39.4552 1.85997C37.2991 3.08738 35.4455 4.78218 34.0303 6.81988C32.6099 9.06642 31.563 11.5283 30.9303 14.1098C30.2928 16.9585 29.9808 19.8705 30.0003 22.7896V39.9993C30.0003 41.3254 30.5271 42.5971 31.4648 43.5348C32.4025 44.4725 33.6742 44.9992 35.0003 44.9992H45.0001ZM15.0006 44.9992C16.3267 44.9992 17.5984 44.4725 18.5361 43.5348C19.4737 42.5971 20.0005 41.3254 20.0005 39.9993V27.7895C20.0005 26.4635 19.4737 25.1917 18.5361 24.254C17.5984 23.3164 16.3267 22.7896 15.0006 22.7896H8.06073C8.06073 21.0346 8.16572 19.2747 8.37072 17.5197C8.68071 15.6597 9.20071 14.0048 9.9207 12.5598C10.6457 11.1098 11.5757 9.97483 12.7156 9.14484C13.8506 8.21486 15.2956 7.74987 17.0556 7.74987V0C14.1606 0 11.6307 0.619989 9.4557 1.85997C7.29967 3.08738 5.44598 4.78218 4.0308 6.81988C2.61045 9.06642 1.56356 11.5283 0.930851 14.1098C0.293291 16.9585 -0.0187025 19.8705 0.000866376 22.7896V39.9993C0.000866376 41.3254 0.527641 42.5971 1.46531 43.5348C2.40297 44.4725 3.67472 44.9992 5.00078 44.9992H15.0006Z" fill="white" fill-opacity="0.9"/>
</svg>
