<svg width="15" height="14" viewBox="0 0 15 14" fill="none" xmlns="http://www.w3.org/2000/svg">
<path d="M7.88143 11.0788L7.50076 10.854L7.1197 11.0781L3.48231 13.2181L3.48097 13.2188C3.44591 13.2396 3.42003 13.2424 3.40073 13.2412C3.37769 13.2397 3.35176 13.2311 3.32839 13.2145C3.30496 13.1979 3.2925 13.1793 3.28721 13.1664C3.2836 13.1575 3.27928 13.1432 3.28623 13.1139C3.28623 13.1139 3.28624 13.1138 3.28625 13.1138L4.2503 9.07398L4.35736 8.62532L4.00526 8.32737L0.788574 5.6054L0.788309 5.60518C0.760128 5.58135 0.754409 5.56417 0.752263 5.55583C0.749091 5.54351 0.748445 5.5249 0.755785 5.50294C0.763131 5.48095 0.775903 5.4635 0.789916 5.45215C0.801019 5.44315 0.82102 5.4309 0.861782 5.42773L0.861783 5.42774L0.865657 5.42742L5.09905 5.07648L5.546 5.03943L5.72486 4.62815L7.38141 0.81911L7.38142 0.819113L7.38269 0.816161C7.39383 0.79023 7.4067 0.77841 7.4204 0.770038C7.43785 0.759377 7.46555 0.75 7.5 0.75C7.53446 0.75 7.56215 0.759377 7.5796 0.770038C7.5933 0.77841 7.60617 0.79023 7.61731 0.816161L7.61731 0.816163L7.61834 0.818546L9.27489 4.63615L9.45358 5.04795L9.90095 5.08504L14.1343 5.43598L14.1343 5.43599L14.1382 5.43629C14.179 5.43946 14.199 5.45171 14.2101 5.46071C14.2241 5.47206 14.2369 5.48951 14.2442 5.5115C14.2516 5.53346 14.2509 5.55207 14.2477 5.56439C14.2456 5.57273 14.2399 5.58991 14.2117 5.61374L14.2114 5.61396L10.9947 8.33593L10.6426 8.63388L10.7497 9.08254L11.7137 13.1223C11.7138 13.1224 11.7138 13.1224 11.7138 13.1225C11.7207 13.1517 11.7164 13.1661 11.7128 13.1749C11.7075 13.1878 11.695 13.2064 11.6716 13.2231C11.6482 13.2397 11.6223 13.2483 11.5993 13.2498C11.58 13.251 11.5541 13.2481 11.519 13.2274L11.5188 13.2273L7.88143 11.0788Z" stroke="#FFE815" stroke-width="1.5"/>
</svg>
