<svg width="31" height="30" viewBox="0 0 31 30" fill="none" xmlns="http://www.w3.org/2000/svg">
<rect width="31" height="30" rx="5" fill="#424242"/>
<path d="M23.5 10.0287C22.9111 10.2963 22.2763 10.4723 21.6185 10.5564C22.2916 10.151 22.8117 9.50858 23.0564 8.73612C22.4216 9.11853 21.718 9.38621 20.9761 9.53918C20.3719 8.88143 19.5229 8.49902 18.5593 8.49902C16.762 8.49902 15.2935 9.96747 15.2935 11.7801C15.2935 12.0401 15.3241 12.2925 15.3776 12.5296C12.6549 12.3919 10.2304 11.0841 8.61663 9.10323C8.33365 9.58507 8.17304 10.151 8.17304 10.7476C8.17304 11.8872 8.74665 12.8967 9.63384 13.4703C9.09082 13.4703 8.58604 13.3174 8.14245 13.0879V13.1109C8.14245 14.7017 9.27438 16.0325 10.7734 16.3308C10.2921 16.4625 9.78688 16.4808 9.29732 16.3843C9.50505 17.0363 9.91188 17.6068 10.4606 18.0156C11.0094 18.4244 11.6724 18.651 12.3566 18.6635C11.1968 19.5816 9.75927 20.0779 8.28011 20.0707C8.02008 20.0707 7.76004 20.0554 7.5 20.0248C8.95316 20.9579 10.6816 21.5009 12.5325 21.5009C18.5593 21.5009 21.8709 16.499 21.8709 12.1625C21.8709 12.0172 21.8709 11.8795 21.8633 11.7342C22.5057 11.2753 23.0564 10.6941 23.5 10.0287Z" fill="white" fill-opacity="0.9"/>
</svg>
