<svg width="31" height="30" viewBox="0 0 31 30" fill="none" xmlns="http://www.w3.org/2000/svg">
<rect width="31" height="30" rx="5" fill="#424242"/>
<path d="M13.7 17.7002L18.371 15.0002L13.7 12.3002V17.7002ZM24.104 10.6532C24.221 11.0762 24.302 11.6432 24.356 12.3632C24.419 13.0832 24.446 13.7042 24.446 14.2442L24.5 15.0002C24.5 16.9712 24.356 18.4202 24.104 19.3472C23.879 20.1572 23.357 20.6792 22.547 20.9042C22.124 21.0212 21.35 21.1022 20.162 21.1562C18.992 21.2192 17.921 21.2462 16.931 21.2462L15.5 21.3002C11.729 21.3002 9.38 21.1562 8.453 20.9042C7.643 20.6792 7.121 20.1572 6.896 19.3472C6.779 18.9242 6.698 18.3572 6.644 17.6372C6.581 16.9172 6.554 16.2962 6.554 15.7562L6.5 15.0002C6.5 13.0292 6.644 11.5802 6.896 10.6532C7.121 9.8432 7.643 9.3212 8.453 9.0962C8.876 8.9792 9.65 8.8982 10.838 8.8442C12.008 8.7812 13.079 8.7542 14.069 8.7542L15.5 8.7002C19.271 8.7002 21.62 8.8442 22.547 9.0962C23.357 9.3212 23.879 9.8432 24.104 10.6532Z" fill="white" fill-opacity="0.9"/>
</svg>
